<?xml version="1.0" encoding="UTF-8" standalone="no"?>
<svg xmlns:rdf="http://www.w3.org/1999/02/22-rdf-syntax-ns#" xmlns="http://www.w3.org/2000/svg" height="947pt" width="396pt" version="1.1" xmlns:cc="http://creativecommons.org/ns#" xmlns:dc="http://purl.org/dc/elements/1.1/" viewBox="0 0 396 947">
<g>
<path d="m436.45 591.83c-0.6-0.02-1.19 0-1.75 0.04-8.24 1.66-18.67 0.86-25.01 6.87-1.4 10.12 12.4 12.85 19.4 8.22 5.22-2.21 16.86-5.8 12.19-13.37-1.26-1.32-3.06-1.7-4.83-1.76zm-118.34 31.25c-0.3-0.01-0.61-0.01-0.91 0.02-11.17 2.21-23.16 5.18-32.51 11.84-5.15 6.24 3.28 15.39 10.1 10.86 9.82-4.31 24.15-3.19 30.54-13 1.59-4.54-2.67-9.46-7.22-9.72zm-54.18 13.24c-3.44-0.04-5.18 3.63-5.17 6.64-0.34 5.03 3.32 10.83 8.79 10.69 3.65 0.08 6.07-3.56 5.96-6.94 0.18-5.2-4.5-9.98-9.58-10.39z" transform="scale(.8)" fill="#666"/>
<path d="m178.61 726.98c-4.36 0.58-7.16 5.57-6.81 9.69 0.6 7 7.56 13.61 14.78 11.57 2.1-1.31 2.46 1.49 3.36 2.84 1.46 3.95 7.01 4.58 9.66 1.51 4.25-3.71 2.52-10.51-1.7-13.47-4.48-3.85-10.66-5.2-14.84-9.4-0.9-1.61-2.53-2.86-4.45-2.74zm74.78 8.19c-4.05 0.24-5.73 5.04-5.79 8.48 0.49 4.28 5.85 5.11 9.01 3.19 3.46-1.37 6.45-6.15 3.36-9.33-1.64-1.78-4.26-2.32-6.58-2.34zm-132.17 30.85c-4.94 0.05-10.02 3.86-9.7 9.15-0.46 5.98 7.34 9.58 11.95 6.17 4.95-3.08 5.34-10.95 0.81-14.54-0.9-0.59-1.99-0.85-3.06-0.78zm116.66 21.62c-3.48 0.07-6.3 3.2-6.16 6.71-0.12 5.72 2.17 12.59 7.91 14.82 4.57 1.3 8.59-2.48 11.33-5.65 3.15-4.24 0.07-9.83-3.63-12.58-2.46-2.02-5.53-3.35-8.75-3.27-0.24-0.02-0.47-0.03-0.7-0.03zm-63.69 13.87c-5.53-0.2-9.74 5.67-8.21 10.88 1.7 6.25 7.59 12.31 14.52 11.21 5.43-0.87 8.61-7.47 6.13-12.35-1.94-5.22-6.54-9.87-12.44-9.74zm-62 32.04c-4-0.23-6.83 3.3-7.41 6.96-1.2 5.8 2.98 13.29 9.42 13.18 5.65-0.32 8.19-7.19 7.11-12.07-0.82-4.29-4.54-8.21-9.12-8.07zm68.4 31.57c-4.82 0.6-7.79 5.97-7.7 10.5-0.03 5.27 4.76 9.45 9.88 9.56 4.66 0.65 8.62-3.88 7.95-8.41-0.39-5.32-4.46-11.28-10.13-11.65zm-59.64 31.1c-0.79 0.01-1.56 0.09-2.31 0.23-3.59 1.97-2.29 6.6-1.34 9.78 1.54 4.49 7.81 5.04 10.83 1.76 3.35-2.47 3.55-8.17-0.36-10.2-2.03-1.1-4.47-1.61-6.82-1.57z" transform="scale(.8)" fill="#ff0"/>
<path d="m173.77 716.3c-3.96 0.12-5.3 4.41-7.54 6.94-3.92 5.08-8.64 9.52-12.67 14.48-1.39 2.32-0.47 5.23-0.08 7.75 1.51 5.79 5.36 11.56 11.22 13.56 1.85 0.56 3.87 0.55 5.7-0.09 2.69 7.01 6.39 14.48 13.27 18.2 3.84 2.04 8.6 1.88 12.61 0.46 3.06-1.55 4.26-5.19 5.08-8.3 0.39-1.79 0.31-3.53-0.12-5.2 2.5 2.37 5.88 3.85 9.36 3.72 3.16 0.09 6.24-0.8 9.28-1.51 4.25-1.19 6.76-5.67 6.27-9.93-0.29-6.25-5.06-11.89-10.93-13.79-1.2-0.36-2.45-0.53-3.71-0.51-6.56 0.24-13.63 4.88-14.25 11.85-0.13 1.17-0.06 2.31 0.16 3.43-0.94-1.04-1.99-1.98-3.08-2.79-5.62-4.53-12.24-7.63-17.35-12.79-2.11-2.25-3.55-5.75-2.21-8.72 2.84-3.21 5.74-7.24 5.26-11.74-0.52-2.92-3.32-5.13-6.27-5.02zm95.15 19.81c-0.3-0.02-0.61-0.01-0.92 0.01-5.39-0.01-9.01 5.34-9.41 10.28-0.2 1.34-0.1 2.72 0.23 4.05-0.98-0.4-1.96-0.74-2.96-1.01-0.45-0.08-0.9-0.11-1.36-0.1-0.79 0.07-1.56 0.25-2.3 0.49 0.71-1.6 0.72-3.41-0.5-4.91-1.84-2.12-4.8-4.36-7.74-3.44-2.83 1.89-5.64 5.16-5.17 8.8 0.65 2.58 3 3.92 5.49 4.09-3.05 2.31-5.4 6.25-3.8 10.07 2.42 5.61 8.95 8.16 14.75 7.8 3.38-0.19 6.91 0.26 10.17-0.76 4.47-2.56 5.99-9.06 3.12-13.37-0.08-0.13-0.17-0.26-0.25-0.39 2.24-0.42 4.19-2.25 5.1-4.39 2.01-4.28 3.47-9.83 0.7-14.11-1.15-1.81-3.04-3-5.15-3.11zm-134.54 15.94c-7.16 0.16-13.26 7.05-12.59 14.19-0.06 3.75 1.95 7.27 4.98 9.33-1.61 0.71-2.67 2.45-3 4.2-0.97 2.28-3.65 2.49-5.79 2.14-2.79-0.09-5.28-1.45-7.97-1.95-3.4 0.57-5.23 4.17-6.04 7.23-1.47 6.59 0.5 14.64 6.49 18.39 3.4 1.7 8.05 1.45 10.93-1.14 1.41-1.29 1.2-4.03 3.37-4.57 3.58-1.02 7.92 0.39 10.9-2.45 4.38-3.94 4.14-10.92 1.71-15.86-0.67-1.27-1.55-2.51-2.61-3.55 3.31 0.25 6.68-0.45 8.88-3.11 4.41-5.48 3.28-13.9-1.13-19.03-2.03-2.35-4.97-3.94-8.13-3.82zm255.91 9.2c-0.26-0.02-0.51-0.01-0.76 0-3 0.52-4.21 3.75-5.11 6.29-1.47 5.18 0.08 10.73 2.88 15.18 2.6 4.15 5.94 7.85 9.77 10.89 2.95 1.77 6.01 3.46 8.33 6.07 5.67 5.74 8.38 13.56 11.42 20.81 3.5 8.47 6.77 17.42 13.37 24.05 1.8 1.7 3.45 4.42 6.29 4.03 4.17 0.11 8.11-2.46 9.88-6.2 1.97-3.71 1.81-8.1 1.15-12.12-1.28-5.6-5.71-10.69-11.56-11.56-1.19-0.25-1.85-1.57-2.77-2.3-10.13-10.51-16.48-23.74-24.6-35.74-4.55-6.9-9.79-13.43-16.16-18.73-0.63-0.45-1.38-0.63-2.13-0.67zm-163.69 16.4c-6.97 0.31-13.14 6.56-13.01 13.62 0.06 7.64 4.91 14.95 11.62 18.46 3.25 1.68 7.29 2.19 10.77 1.01 2.9-1.27 3-5.06 1.44-7.42-1.59-3.39-4.53-6.03-5.83-9.54-0.24-1.44 1.71-2.07 2.39-3.06 2.56-2.08 4.26-5.97 2.13-8.94-2.08-3.03-6-4.14-9.51-4.13zm26.24 0.08c-4.71-0.17-9.11 3.8-9.02 8.6-0.05 6.11 5.08 12.3 11.36 12.45 3.39-0.21 5.92-2.73 7.72-5.38 2.75-2.24 3.5-6.33 1.73-9.38-2.4-3.93-7.27-6.25-11.79-6.29zm-86.19 3.78c-3.32 0.13-6.93 1.27-8.13 4.65-1.43 3.93 0.47 8.11 0.84 11.94-5-1.63-10.45 1.34-12.76 5.86-2.88 5.11-3.33 11.57-1.21 17.02 1.69 3.4 5.08 6.35 9.09 6.02 0.95 0.11 2.25-0.08 2.96 0.15-2.05 3.82-1 8.83 2.43 11.51 4.88 4.26 12.58 5.76 18.31 2.37 3.92-2.32 6.04-8.41 2.73-12.05-1.93-1.91-5.01-1.28-7.18-0.59 0.64-6.99-4.27-12.75-5.91-19.23-0.37-2.72 2.07-4.94 4.25-6.1 1.78-0.3 3.97-0.55 5.2 1.12 4.78 4.59 6.91 11.69 12.87 15.07 3.36 1.87 7.17 0.08 10.06-1.78 4.92-1.44 7.55-6.98 6.51-11.83-1.36-6.85-6.04-13.03-12.23-16.26-4.06-2.09-9.8-1.19-12.1 3.04-2.47-4.39-5.31-9.56-10.67-10.72-1.21-0.23-2.45-0.19-3.67-0.19-0.45-0.02-0.92-0.02-1.39 0zm284.45 27.98c-0.31-0.01-0.62-0.01-0.95 0.01-2.77-0.02-5.65 1.53-6.47 4.31-1.52 4.53 0.66 9.23 2.75 13.19 1.31 2.13 2.36 4.55 4.23 6.24 2.42 1.6 5.47 0.03 7.3-1.78 3.21-3.49 3.16-8.77 2.08-13.11-1.09-4.24-4.31-8.6-8.94-8.86zm-335.06 7.11c-2.63-0.05-4.91 1.64-7.56 1.41-6.33 0.51-12.028 5.14-13.705 11.28-1.997 7.25-0.865 14.92 0.885 22.1-1.182 5.97-0.545 12.76 3.508 17.6 2.822 3.29 6.852 5.92 11.252 6.22 4.15-0.05 6.22-4.22 7.79-7.45 0.59-0.08 1.35 1.96 2.31 2.39 3.66 3.15 9.37 2.23 12.55-1.15 3.1-2.82 4.48-7.28 3.62-11.33 4.18-1.95 6.07-6.94 5.1-11.31-1.27-6.56-6.11-12.63-12.58-14.63-2.76-0.89-6.48-0.47-7.69 2.58-2.62 5.12-1.39 11.28-3.94 16.39-1.61 2.11-5.12 3.61-7.38 1.57-2.51-1.93-3.75-5.16-4.4-8.16-0.29-2.93-0.65-7.07 2.46-8.67 3.08-1.25 6.33 1 9.5 0.04 6-1.24 8.88-8.81 6.09-14.03-1.36-3.01-4.49-4.98-7.81-4.85zm56.69 32.65c-5.35 0.41-11.57 2.8-13.28 8.41-0.63 2.65-0.33 5.43 0.2 8.06-5.01 2.42-7.38 8.33-6.59 13.66 1.03 7.56 5.41 14.97 12.25 18.63 2.76 1.53 5.23-0.83 7.51-2.11 3.62-2.08 8.14-3.12 12.19-1.86 2.66 1.04 4.54 3.3 5.94 5.69 1.79 2.55 5.99 1.62 6.93-1.24 2.26-3.83 2.14-9.24-1.34-12.33-5.15-4.72-12.6-4.85-19.18-5.21-2-0.53-3.83-2.49-3.13-4.69 1.47-6.21 6.11-11.03 7.46-17.33 1.09-5.35-3.91-9.69-8.96-9.68zm-48.48 29.48c-0.33 0-0.66 0.02-1 0.07-2.85 1.31-4.66 4.34-5.49 7.29-0.27 0.85-0.21 2.62-0.33 2.86-2.14-3.96-8.36-5.64-11.64-2.18-4.83 5.82-6.905 14.87-2.59 21.54 0.9 1.34 2.08 2.51 3.44 3.38-2.55 5.4-0.52 12.63 4.88 15.43 3.26 1.87 7.21 0.82 10.14-1.17 7.02-3.94 15.75-6.12 21.04-12.73 3.9-4.8 3.86-11.61 1.76-17.18-2.69-7.85-8.9-15.16-17.29-16.94-0.98-0.2-1.94-0.37-2.92-0.37zm-5.46 14.06l0.11 0.19c2.64 4.34 7.84 6.49 10.28 10.97 0.5 2.95-3.13 4.27-5.5 3.78-2.94-0.5-6.13-2.46-6.88-5.49-0.19-1.65-0.03-3.28 0.97-4.66 0.72-1.48 1.2-3.13 1.02-4.79zm-27.481 19.67c-2.375 0.14-4.018 2.42-3.952 4.69-1.858 6.32-6.224 11.89-6.419 18.69-0.14 3.55 1.14 7.44 3.992 9.68 1.507 1.2 3.666 0.81 5.258 1.55-0.218 4.81-5.056 8.69-3.547 13.69 1.865 5.93 8.338 9.87 14.429 9.43 3.56-0.16 5.65-4.27 4.28-7.4-0.31-1.35-1.48-2.43-1.81-3.65 1.35-7.02 1.92-14.65 6.1-20.76 1.77-2.18 4.08-4.73 3.08-7.78-0.29-3.09-3.9-5.41-6.69-3.68-3.14 2.04-4.09 6.31-6.571 8.74-0.872-0.79-2.633-0.54-3.188-1.6 0.172-5.56 3.643-10.95 2.024-16.56-1.048-2.79-3.935-5.11-6.986-5.04z" transform="scale(.8)" fill="#f00"/>
<path d="m231.7 871.49c-8.8657-0.44879-19.469 7.2003-17.711 16.762 3.5669 6.0432 12.22 1.2252 16.834 6.2075 2.9758 2.2216 7.893 5.4705 1.6053 3.1976-7.9907-1.2771-16.528 0.67044-21.846 7.1084-7.476 2.6323-11.077 10.652-10.062 18.23 0.71879 6.0637-0.34318 2.6291-3.3677 1.1015-7.5122-1.6206-8.2747 8.5805-8.2753 13.754-0.61455 13.653 3.1945 29.967 15.997 37.045 6.0444 0.7337 12.627 0.80086 17.083 5.8062 7.4976 6.1201 14.141 15.326 24.573 16.077 0.87492 6.6365-1.2658 18.334 7.5882 20.099 3.3004 0.2811 5.3872-3.1801 5.0166-6.1421 2.6151 5.6126 7.0916 13.565 14.587 10.976 4.627-2.4323 11.111-1.3593 14.57-5.4376 2.719-5.7421 2.0796-12.997 6.827-17.824-7.971 13.349-1.1253 30.787 8.8642 41.141 4.8469 5.4616 13.45 9.794 19.77 4.1376 15.773-11.261 19.95-35.632 9.8544-51.87-3.6568-5.9513-10.964-9.5784-16.712-11.327 2.8963-20.746-13.975-37.933-31.33-46.227-7.1756-3.1182-16.123-6.9099-16.099-16.217-2.4668-13.185 0.84859-27.77-5.6143-39.976-2.193-4.1082-9.5628-8.3086-11.811-2.0241 0.59128 5.161-2.5537 0.007-5.0144-0.7983-4.6325-2.6311-10.002-3.9633-15.327-3.7996z" transform="scale(.8)" fill="#ffff5d"/>
<path d="m381.88 550.25c-0.47-0.01-0.95 0-1.43 0.01-7.94 0.4-16.05 0.27-23.81 2.11-4.66 1.88-4.12 7.82-1.67 11.28 10.55 16.77 19.37 34.82 25.71 53.5 3.2 9.47 6 19.05 8.63 28.69-5.99-21.12-13.46-41.75-24.41-60.92-5.78-9.68-9.44-21.6-19.48-28.08-3.03-2.09-6.7-2.92-10.35-2.74-7.25 0.24-13.07 5.46-19.45 8.29-15.41 8.49-30.71 17.27-45.25 27.18-5.34 3.83-5.2 11.42-2.3 16.72 2.66 6.57 7.26 12.72 8.37 19.7-0.77 3.9 3.22 7.43 6.96 5.73 12.1-3.2 25.68-3.05 36.26-10.47 3.24-2.54 5.44-6.26 6.46-10.22 2.76 33.2 17.79 64.35 37.95 90.45 12.35 16.7 27.61 32.37 33.58 52.77 2.24 6.54 1.42 13.58 3.07 20.19 4.76 7.75 10.22 15.15 15.12 22.85 5.96 8.37 11.59 17.81 20.65 23.15 4.07 2.13 8.55-1.92 8.05-6.19-0.7-16.51-5.48-32.79-13.46-47.27 4.48 6.98 8.77 14.05 11.3 22.01 2.12 5.99 0.16 14.33 6.3 18.27 3.55 2.58 8.77-0.25 8.4-4.65 0.97-12.02 0.05-24.45-5.17-35.49-5.34-13.22-13.29-25.59-15.47-39.91-6.3-30.91-7.63-62.62-15.36-93.34-3.9-23.82-17.71-44.21-25.8-66.59-2.47-5.59-2.97-13.44-9.17-16.35-1.35-0.52-2.79-0.66-4.23-0.68zm-56.5 49.12c0.02-0.02 0.04 0.1 0.05 0.49-0.1-0.05-0.08-0.45-0.05-0.49zm-69.04 7.25l-2.34 0.37c-7.7 7.43-13.32 16.76-19.76 25.27-15.57 21.87-30.16 44.39-47.48 64.96-6.09 7.09-6.99 17.32-4.53 26.05 2.76 7.64 10.81 11.42 17.7 14.62 13.43 5.65 28.86 5.32 42.71 1.39 7.11-2.29 14.52-4.69 20.56-9.12 14.47-23.19 33.88-43.18 45.93-67.87 2.37-5.81 5.36-11.73 5.74-18.03-2.33-4.87-8.21-1.81-12.17-1.19-12.38 3.01-23.51 9.82-36.24 11.38-4.38-0.27-7.87-4.5-7.1-8.89-0.24-5.46 4.47-9.57 9.16-11.36 4.09-2.78 0.16-7.1-1.02-10.47-2.59-6.21-4.28-14.18-11.16-17.11zm69.54 37c-5.17 1.22-5.18 7.62-7.25 11.57-9.46 23.48-26.31 42.86-43.14 61.35-3.18 3.06-4.38 8.84-0.24 11.66 4.05 3.8 10.29 2.15 13.77-1.57 11.23-10.01 22.29-20.42 31.53-32.33 5.97-8.29 11.6-17.08 15.24-26.61-0.23-6.94-0.83-14.42-4.25-20.66-1.21-1.92-3.27-3.6-5.66-3.41zm68.98 23.4c4.88 19.18 9.64 38.4 15.83 57.19-3.47-8.01-6.84-16.06-8.3-24.73-2.46-10.79-4.89-21.64-7.53-32.46zm25.85 83.01c1 1.89 2.06 3.74 3.16 5.57-0.29-0.41-0.58-0.82-0.88-1.22-0.9-1.39-1.63-2.85-2.28-4.35zm-239.33 143.98c-5.63 1.06-8.99 6.83-11.15 11.68-4.34 11.4-1.32 25.34 7.26 33.95 3.7 3.18 8.1-0.83 9.35-4.45 2.88-5.26 3.01-12.53 8.84-15.69 4.35-3.25 5.59-9.57 2.49-14.11-3.47-5.87-9.78-10.97-16.79-11.38zm-38.84 28.04c-10.41 1.24-18.45 9.2-25.01 16.74-5.59 7.15-9.49 16.01-9.9 25.14-0.06 5.68 0.05 11.9 3.34 16.74 4.12 1.49 8.94 1.37 12.4 4.51 9.6 7.51 14.4 19.22 20.73 29.22 13.3 23.7 29.34 45.9 48.86 64.8 8.1 8.5 17.44 15.7 25.68 24.1 6.11 8.9 14.92 15.4 24.53 20.2 11.87 6.1 24.66 10.6 35.76 18.2 15.43 6.6 31.7 11.4 48.23 14.3 9.03 1.7 18.22 2 27.37 2.3 12.33 8.7 24.11 19.6 39.29 22.8 6.12 1.5 12.59 1 18.52-1 4.22-2 2.42-7.9-0.43-9.7 7.46 0.2 14.43 5.9 21.96 3.9 4.01-1.5 3.16-7.3-0.54-8.6-3.81-0.6 0-3.4-1.94-5.8-3.64-3.1-9.09-2.7-13.52-4.2-3.68-0.9-7.75-1.9-11.12-3.1 4.36-1.2 5.04-7.9 0.65-9.6-12.85-6.4-28.74-9.2-42.16-2.8-3.05 0.5-6.01-2-8.96-2.8-29.89-13-56.78-32.3-87.68-43.1-6.47-3.2-14.17-3-20.37-6.7-5.33-5.3-9.1-11.9-14.46-17.2-9.59-10.6-20.28-20.4-28.91-31.9-0.03-0.2-0.06-0.4-0.1-0.6 1.89 3.2 6.84 1.6 7.79-1.8 1.36-1.9 4.19 0.9 3.8 2.7 0.95 3.8 5.74 3.8 7.96 1.2 2.6-1 3.51 3 5.73 3.7 4.66 3.3 9.85-1.6 11.17-6.1 1.36-3.7 1.38-7.9 3.11-11.5 7.08 5.3 13.73 12.5 22.81 14 7.04 1 14.62-1 19.27-6.6 4.42-3.7 7.36-10.8 3.63-15.9-3.29-3.5-7.64 0-10.2 2.5-6.57 4.4-15.59 4-22.69 1.1-5.36-2.5-9.61-7.1-11.53-12.6-2.64-4-8.09-3-12.16-4-2.32-0.6-5.29 0.4-7.21-0.8-1.46-2.4 1.61-4.56 3.72-4.86 4.07-2.07 1.99-8.44-2.4-8.34-7.75-0.87-16.22 4.46-17.55 12.4-0.68 0.9-1.24-2.4-1.54-3.39-1.09-3.09 0.18-6.18 2.53-8.22 3.24-4.4 0.37-10.41-4.13-12.61-3.79-2.29-7.86-4.72-12.34-5l-2.05 1.2c-2.2 4.1 0.05 8.96 0.21 13.36 0.57 3.46 1.23 6.9 1.94 10.33-1.21-2.3-2.57-4.54-4.17-6.67-0.95-3.64-0.64-7.88-1.6-11.71-2.86-17.75-9.41-35.93-22.82-48.44-6.56-5.43-14.85-9.62-23.5-9.8zm203.68 88.55c-0.47 0-0.94 0.1-1.41 0.1-4.68 1.7-3.7 7.7-5.38 11.5-1.92 6.7-4.31 15.6 1.89 20.9 7.12 4.9 16.02 6.1 24.12 8.6 21.71 5.7 43.75 10 64.71 18.2 3.38 1.2 9.03 2.5 10.44-2.1 0.7-2.1-0.7-4.2-2.33-5.4 11.35 0.8 22.22-3.7 33.49-4.3 4.38 0.1 6.78-5.8 3.12-8.5-5.61-3.9-12.79-0.9-19.02-0.7-1.77 0-3.95 0.7-5.5-0.2 0.92-3.2 0.07-7.8-4.1-7.5-8.34 0.4-15.98 4.5-24.19 5.4-5.37-2.1-10.65-4.6-16.35-5.9-5.92-2-12.26-2.5-17.76-5.5-12.76-9.6-25.91-19.4-41.26-24.5-0.16-0.1-0.31-0.1-0.47-0.1z" transform="scale(.8)" fill="#ffc199"/>
</g>
<path d="m0 0v1.1133c66.788 150.85 130.81 303.18 197.01 454.39 19.85 46.6 40.08 93.19 56.73 140.95-9.13 19.31-29.19 35-39.53 55.25-14.17 25.61-36.31 44.78-52.1 69.16-27.47 21.09-59.83 42.4-70.46 77.43-6 36.75-0.35 74.31-5.613 111.06-12.912 16.35-13.087 41.21-4.437 59.25 15.15 4.61 24.34 16.81 36.14 26.18 23.26 10.62 29.31 37.62 43.11 56.92 16.44 27.3 40.91 48.4 61.25 72.5 28.81 10.4 55.53 27.4 85.95 34 28.09 9.1 57.02 13.6 83.9 25.6h34.89c8.02 0 22.67-1.5 19.26-13.3-1.29-14-17.62-13-27.86-16-3-5.1 10.05-6.4 4.2-12-10.64-0.7-21.74-1.2-31.73-5.8-12.77-5.5-27.04 7.3-39.11-2.1-29.94-11.4-54.34-32.4-85.16-41.2-26.13-3.6-34.42-33.6-53.9-47.8 10.37-6.5 15.05 0.7 23.61 2.2 12.54-19.2 38.32 5.5 52.39-12 6.65-6.3 11.44 5.3 15.67 8.7 9 9.3 21.01 3.5 30.89-0.6 24.14 9.8 49.61 17.7 75.7 19.8 17.4 12.6 39.08 10.4 58.79 16.1 6.3-9.7-10.97-9.6-12.03-17.1 12.19-5.9 30.78-0.8 37.44-15.5v-1.1c-24.71-4.6-52.15-2.5-77.79-3.2-24.71-4.3-43.17-23.3-66.67-30.9-10.34-1.8-6.19-15.37-11.98-21.79-4.26-6.65-18.91-6.73-15.27-17.03 6.3-26.63-21.45-38.86-39.57-50.49-13.36-6.59-7.06-23.65-9.84-35.05-8.13-21.73-35.58-34.82-57.31-24.89-8.47 4.39-7.01 17.02-11.31 23.2-1.99-11.74-13.84-18.5-14.66-30.55-1.84-11.42-0.6-33.49 15.51-32.04 40.28 0.78 85.83-24.81 86.54-69.33-5.07-33.92 33.83-47.48 46.06-75.34 17.12 24.89 39.93 46.66 53.68 73.5-22.59 11.86-8.24 42.08 10.58 49.78 9.3 16.62 13.54 41.11 32.28 50.71 11.97 5.83 12.59-10.53 21.5-13.37 13.84-7.91 2.52-23.92 3.32-35.75 6.15-34.06-18.62-61.9-24.77-93.94-4.65-32.26-9.8-64.48-16.37-96.27 12.48-10.36 50.68-2.22 45.08-26.89-2.6-10.33-16.16-0.96-20.25-9.07-21.45-29.74-36.69-63.28-55-94.92-87.91-160.82-175.05-322.12-263.75-482.47h-8.08c61.57 112.41 122.93 224.96 184.33 337.49 41.65 83.66 86.13 166.19 132.99 246.82-0.84 8.07-15.89 5.98-22.76 9.26-7.14-10.46-8.64-25.03-12.92-37-9.71-18.33-34.12-12.68-48.69-3.31-9.39-3.95-20.79-5.59-29.68 0.59-17.8 11.29-41.41 20.22-53.74 36.69-10.86-17.27-14.92-38.93-25.11-56.95-16.78-27.56-22.73-60.14-40.04-87.43-65.15-148.4-128.12-297.81-193.36-446.16h-7.95zm380.42 553.61c3.38-0.03 6.58 0.96 8.01 4.55 6.95 27.19 25.51 49.95 29.18 78.04 9.15 33.91 8.65 69.25 17.86 103.16 6.84 19.45 21.48 36.52 17.58 58.67 3.73 10.5-5.54 6.88-5.49 0.42-0.1-21.55-18.41-36.34-25.94-55.13-24.53-59.31-26.5-127.92-64.12-182.08-5.1-9.4 11.6-5.24 16.97-6.81 1.83-0.41 3.92-0.8 5.95-0.82zm-44.58 4.03c11.55 0.15 18.16 13.51 22.22 22.97 24.79 39.89 32.96 86.51 43.39 131.65 5.67 13.61 12.56 26.8 16.11 41.2 14.05 16.87 21.83 38.31 23.41 59.99 0.72 2.57-1.39 5.27-3.94 3.36-14.65-11.77-21.94-29.84-33.59-44.27 2.41-36.29-31.8-62.1-49.34-91.64-14.6-24.64-25.37-52.56-24.64-81.44-0.26-7.53-11.12-4.61-6.89 3.32 4.13 23.52-27.61 21.02-42.22 25.81 1.8-13.59-21.6-30.5-4.1-38.6 18.14-11.43 36.58-22.57 55.84-31.95 1.3-0.29 2.55-0.41 3.75-0.4zm98.71 36.9c20.56-0.24-23.76 22.39-21.96 4.01 7.31-1.3 14.75-2.11 21.96-4.01zm-179.08 15.66c6.32 2.66 6.86 14.86 11.83 21.04-13.7 2.5-17.36 23.71-1.68 27.19 15.74-1.18 29.72-11.91 45.67-13.14-8.13 32.02-34.47 54.8-50.94 82.57-22.03 13.04-53.47 16.3-73.26-2.48-3.86-7.57-3.66-18.35 1.81-25.23 24.94-28.21 42.89-61.28 66.57-89.95zm62.27 15.49c3.82 0.23 5.92 4.36 4.69 8.96-9.52 4.08-20.4 3.52-29.5 8.49-3.48 1.85-9.42-1.55-6.57-6.26 8.29-5.19 17.96-6.87 27.05-10 1.6-0.92 3.06-1.27 4.33-1.19zm-54.08 14.3c4.3 0.76 8.21 5.94 4.75 9.79-4.76 1.1-7.54-6.37-4.75-9.79zm61.81 6.82c5.25 0.65 6.41 14.33 6.64 20.13-9.65 24.12-28.54 42.6-48.01 58.97-4.03 2.6-9.5-0.89-7.64-5.25 20.45-21.49 40.55-44.85 49.01-73.85zm-151.81 73.39c6.27 0.13 0.07 8.83-2.6 11.24-6.58 21.11 37.41 22.52 24.23 42.52-14.17 4.97-19.78-11.92-22.94-21.03-6.9 8.63-17-5.41-15.41-13.33 5.46-6.38 11.82-12.11 16.07-19.39 0.23-0.01 0.45-0.02 0.65-0.01zm5.5 10.14c2.46 7.95 21.73 8.5 18.8 18.6-6.46 7.36-3.86-8.09-11.32-4.64-7.8 3.5-15.93-9.71-7.48-13.96zm73.83 8.6c12.96 0.12-7.29 11.74 0 0zm15.15 0.94c5.94-0.03 3.45 10.85 0.25 13.97-7.77 0.84-7.83-11.3-1.55-13.81 0.47-0.11 0.9-0.16 1.3-0.16zm-22.8 5.13c11.49 4.4-10.09 9.88 0 0zm-33.98 0.87c9.91-0.35 17.11 16.97 4.09 17.36-12.96 4.7-21.1-11.78-7.24-16.65 1.07-0.45 2.12-0.68 3.15-0.71zm42.75 7.07c5.94 1.01 16.96 8.24 9.78 15.04-6.24 0.82-17.34 2.07-20.18-5.73 0.43-5.29 6.6-6.86 10.4-9.31zm-119.94 2.94c10.18-0.6 12.34 21.78-0.42 18-10.2-0.14-11.15-14.16-1.72-17.55 0.74-0.26 1.46-0.41 2.14-0.45zm255.84 9.06c18.46 15.2 25.75 41.64 43.84 57.49 12.94-0.14 13.75 23.27 2.06 22.24-17.62-14.54-14.6-43.75-36.48-54.07-6.87-5.61-16.04-16.8-9.42-25.66zm-268.44 4.83c4.27 0.31 2.24 9.93-2.86 9.02-5.25 0.13-4.18-8.25 0.63-8.52 0.88-0.4 1.62-0.54 2.23-0.5zm7.14 9.31c6.76 0.23 9.83 15.68 1.65 16.56-5.22-0.55-10.46 0.4-11.55 6.1-10.01 6.03-15.02-12.66-8.7-17.89 6.82 2.65 15.85 4.37 17.94-4.75 0.23-0.02 0.45-0.03 0.66-0.02zm97.72 2.35c4.55-0.04 10.14 2.76 4.33 7-8.62 6.35 2.99 12.36 3.99 18.74-12.74 3.81-26.48-20.4-9.21-25.69 0.29-0.03 0.59-0.05 0.89-0.05zm26.26 0.03c4.79-0.07 13.15 5.22 6.97 9.56-5.49 11.57-18.77-6.35-7.87-9.47 0.28-0.05 0.58-0.08 0.9-0.09zm-84.14 3.7c8.89-0.11 9.1 10.89 15.11 14.97 3.35-23.03 30.63 10.12 14.27 14.02-11.8 10.04-12.64-21.2-28.05-14.41-14.97 9.75 3.16 18.99-0.39 30.63-0.6 7.86 9.45-3.38 9.29 3.23-1.13 10.53-24.11 4.25-17.33-5.8 2.79-3.09-2.16-5.32-4.85-4.67-14.24 2.77-9.64-27.05 3.14-20.78 9.72-2-4.9-16.56 6.91-17.01 0.67-0.11 1.31-0.17 1.9-0.18zm70.04 6.1c6.32 0.16 14.89 9.09 6.45 12.43-6.5 7.65-12.19-8.6-8.32-12.19 0.59-0.18 1.22-0.26 1.87-0.24zm-64.62 13.94c6.02-0.17 10.26 6.2 9.56 11.8-5.9 9.96-20.37-7.13-10.78-11.67 0.42-0.07 0.82-0.12 1.22-0.13zm276.37 8.13c7.06-0.24 9.12 16 2.48 16.65-2.71-4.14-7.97-12.3-4.82-16.02 0.83-0.41 1.61-0.61 2.34-0.63zm-334.56 7.04c7.67-0.54 7.28 14.8-3.27 10.87-18.898-2.75-10.32 32.55 4.49 24.81 8.59-4.18 4.45-14.56 8.4-20.85 9.43-1.37 20.12 18.73 5.95 20.1 6.41 7.41-5.96 19.49-10.54 8.74-6.9-6.94-5.47 10.79-12.62 6.76-8.03-2.85-10.839-11.42-8.452-19.28-3.387-11.85-5.189-30.44 12.272-29.84 1.42-0.83 2.68-1.23 3.77-1.31zm-3.51 16.9c5.81-0.18 7.6 9.53 2.52 12.72-5.89 0.64-8.54-9-4.45-12.32 0.68-0.25 1.33-0.38 1.93-0.4zm60.82 15.75c16.6 3.36-16.04 24.11 3.62 31.97 7.77-0.49 23.88 1.31 17.38 12.57-6.1-11.41-18.13-9.19-26.66-2.82-9.37-4.27-16.97-23.56-3.11-26.74-2.96-8.35-2.04-13.81 8.77-14.98zm7.01 15.75c6.92 0.5 11.18 15.22 0.61 12.21-5.98-2.28-4.75-8.79-0.61-12.21zm72.37 5.06c24.82 10.79 1.67 43.49 21.22 58.75 20.95 8.52 46.26 24.99 38.95 52.22 30.26-3.21 30.39 53.39 2.72 58.49-15.85-5.7-29.16-35.6-13.3-46.92-11.46-9.69-15.67 10.52-15.92 19.42-6.58-3.2-10.34 4.7-16.94 2.9-7.15-2.4-5.46-15.8-14.05-14.7-0.96 3.1 3.48 9.4-0.87 9.9-7.03-4.6-2.06-14.39-5.28-20.46-19.42 0.8-22.66-25.42-43.32-21.37-12.43-8.91-17.11-30.02-11.61-44.54 7.63-2.64 2.91 14.66 10.18 10.44 1.3-9.3-5.63-27.38 8.7-29.79 7.54-15.45 39.06-5.77 37.74 12.5-0.37 8.12-1.14 18.78 5.51 24.18-1.6-13.3 4.99-28.38-7.15-40.15-11.51-6.62-16.76-20.71-32.33-16.07-0.62-17.78 27.74-17.34 35.47-4.5 7.86 8.6 3.3-7.28 0.28-10.3zm-128.35 8.76c9.34 0.22 16.12 9.69 17.63 18.22 3.11 14.88-15.87 16.92-24.81 23.5-7.69 0.72-10.13-9.64-4.49-14.26-10.35-2.25-9.21-14.89-3.35-21.24 4.27-1.22 7.69 4.26 4.89 7.67-6.35 11.01 12.39 21.42 18.5 10.97 4.66-11.63-19.14-13.3-8.37-24.86zm57.21 15.07c8.14 0.23 21.2 13.04 11.33 19.58-8.14 3.71-5.75 16.84-12.5 20.15-9.95-10.2-12.17-29.84 0.4-39.71 0.25-0.02 0.51-0.03 0.77-0.02zm-59.61 2.51c13.25-0.38-2.69 14.23-1.37 0.08 0.49-0.04 0.95-0.07 1.37-0.08zm-30.294 16.07c10.614 2.29-7.263 20.72 6.125 22.54 5.379 6.97 10.539-16.28 11.659-5.91-7.66 7.52-8.06 18.37-9.823 27.63 9.953 11.05-12.075 5-8.887-3.67 3.025-5.18 7.674-14.65-3.238-14.05-7.325-8.48 3.326-17.84 4.164-26.54zm50.464 9.34c30.77 1.5 43.76 41.26 44.5 67.29 10.98 13.32 12.16 30.72 14.76 46.92 11.95 16.8 29.2 29.5 40.97 46.7 5.36 9.4 17.72 6.5 25.92 11.7 34.28 11.2 63 34.9 96.76 46.5 13.66-8.1 28.81-4 42.39 2-1.45 8.7-15.07-6.8-15.88 2.9 10.95 7.8 25.53 9.2 37.73 12.6-12.49 3.9 0.15 3.4 4.75 8.2-8.97 3.2-19.18-8.9-28.74-1.6-0.32 4 6.72 3 6.17 7.8-22.28 7-39.24-10.9-55.86-22.2-25.6 0.8-50.55-6.4-74.2-15.5-19.45-14.6-47.65-17-60.42-39.6-29.05-23.2-54-51.7-71.95-84.3-9.15-13.9-16.82-36.5-35.34-37.24-8.65-20.46 8.57-46.86 28.44-52.17zm53.33 51.91c6.23 1.71 19.63 7.84 10.85 13.85-4.91 4.99 1.93 24.75 7.5 13.45-0.18-8.21 12.71-13.8 15.96-9.04-7.67-0.44-10.84 10.44-2.81 12.74 5.49-2 10.04 1.7 15.52 0.6 3.59 18.6 33.5 24.7 44.07 9.8 5.94 5.1-3.24 14.1-8.74 16.7-14.08 5.3-23.08-6.9-32.85-14.1-8.96 1.3-2.41 19.8-13.04 19.6-2.79-5.4-6.78-7.3-11.52-2.7-0.49-8.5-12.69-9.6-11.65 0.1-5.06-19.5-11.71-40.35-13.29-61zm106.58 25.1c-4.44 5.1-4.31 20.1 3.26 21-4.4-6 2.55-20.6-3.26-21zm43.15 11.3c15.16 5.2 28.96 14.7 41.21 25 11.23 4.9 24.24 4.6 34.5 11.9 8.96-0.7 17.28-5.7 26.56-6-5.36 17.8 24.87-0.5 26.34 10-13.94-1.4-27.29 7.4-40.9 2.7-9.72 2.7 14.87 11.7-0.61 9.4-26.91-11.8-56.58-14.5-83.58-24.1-14.76-4-3.57-19-3.52-28.9z" transform="scale(.8)"/>
</svg>
